<svg width="28" height="28" viewBox="0 0 28 28" fill="none" xmlns="http://www.w3.org/2000/svg">
    <g clip-path="url(#clip0_14444_41205)">
        <path d="M18.3799 0.159083C20.3506 -0.441364 22.4354 0.668912 23.0361 2.63955L27.832 18.3798C28.4325 20.3506 27.3223 22.4354 25.3515 23.036L9.61228 27.8319C7.64143 28.4326 5.55677 27.3222 4.95603 25.3515L0.159154 9.61221C-0.441493 7.64129 0.669679 5.55661 2.6406 4.95596L18.3799 0.159083ZM14.7646 7.83779C13.9379 7.83779 13.1994 7.98253 12.5498 8.27041C11.9003 8.55829 11.3893 8.95862 11.0166 9.47158C10.6476 9.98454 10.4651 10.584 10.4687 11.2704C10.465 12.1082 10.7393 12.7749 11.2929 13.2694C11.8466 13.764 12.6017 14.1277 13.5576 14.3603L14.792 14.6698C15.2051 14.7694 15.5538 14.8801 15.8379 15.0019C16.1257 15.1236 16.3436 15.2718 16.4912 15.4452C16.6424 15.6186 16.7187 15.8323 16.7187 16.0868C16.7187 16.3599 16.6357 16.602 16.4697 16.8124C16.3036 17.0228 16.0692 17.1875 15.7666 17.3056C15.4676 17.4237 15.1149 17.4823 14.709 17.4823C14.2957 17.4823 13.925 17.4192 13.5967 17.2938C13.2719 17.1647 13.011 16.9745 12.8154 16.7235C12.6236 16.4689 12.5151 16.1514 12.4892 15.7714H10.1689C10.1874 16.5869 10.3853 17.2715 10.7617 17.8251C11.1418 18.375 11.6694 18.7907 12.3447 19.0712C13.0237 19.3517 13.8211 19.4921 14.7363 19.4921C15.6589 19.4921 16.4473 19.3538 17.1006 19.0771C17.7575 18.7966 18.2595 18.403 18.6064 17.8974C18.957 17.3881 19.134 16.7865 19.1377 16.0927C19.134 15.6203 19.0477 15.2012 18.8779 14.8358C18.7118 14.4705 18.4774 14.1531 18.1748 13.8837C17.8722 13.6143 17.5139 13.3876 17.1006 13.203C16.6872 13.0185 16.2328 12.8704 15.7383 12.7597L14.7197 12.5165C14.4725 12.4612 14.2401 12.3948 14.0224 12.3173C13.8047 12.2361 13.6123 12.1421 13.4463 12.0351C13.2802 11.9243 13.1496 11.7928 13.0537 11.6415C12.9614 11.4902 12.9194 11.3132 12.9267 11.1103C12.9267 10.8667 12.9965 10.6488 13.1367 10.4569C13.2806 10.265 13.4874 10.1157 13.7568 10.0087C14.0262 9.89797 14.3568 9.84268 14.748 9.84268C15.3235 9.84272 15.7794 9.96563 16.1152 10.2128C16.451 10.46 16.6412 10.8073 16.6855 11.2538H18.9824C18.9713 10.5786 18.7909 9.98451 18.4404 9.47158C18.0898 8.95861 17.5988 8.55829 16.9677 8.27041C16.3404 7.98256 15.606 7.83783 14.7646 7.83779Z" fill="#1F1F1F"/>
    </g>
    <defs>
        <clipPath id="clip0_14444_41205">
            <rect width="28" height="28" fill="white"/>
        </clipPath>
    </defs>
</svg>
